<svg id="Layer_1" data-name="Layer 1" xmlns="http://www.w3.org/2000/svg" viewBox="0 0 12 12"><defs><style>.cls-1{fill:#231f20;}</style></defs><title>Artboard 3</title><path class="cls-1" d="M9.66,0H2.31A2.32,2.32,0,0,0,0,2.31V9.66A2.32,2.32,0,0,0,2.31,12H9.66A2.32,2.32,0,0,0,12,9.66V2.31A2.32,2.32,0,0,0,9.66,0Zm.66,1.38h.26v2h-2v-2Zm-6,3.38A2.1,2.1,0,1,1,3.88,6,2.11,2.11,0,0,1,4.28,4.76Zm6.53,4.9a1.15,1.15,0,0,1-1.15,1.15H2.31A1.15,1.15,0,0,1,1.17,9.66V4.76H3A3.27,3.27,0,1,0,9,4.76h1.79Z"/></svg>