<svg id="Layer_1" data-name="Layer 1" xmlns="http://www.w3.org/2000/svg" viewBox="0 0 12 12"><defs><style>.cls-1{fill:#231f20;}</style></defs><title>Artboard 3</title><path class="cls-1" d="M11.9,3.47a4.86,4.86,0,0,1-1.4.38,2.45,2.45,0,0,0,1.07-1.35A4.89,4.89,0,0,1,10,3.1,2.44,2.44,0,0,0,5.86,5.33a6.93,6.93,0,0,1-5-2.55A2.44,2.44,0,0,0,1.58,6,2.43,2.43,0,0,1,.48,5.73v0a2.44,2.44,0,0,0,2,2.39,2.45,2.45,0,0,1-1.1,0,2.44,2.44,0,0,0,2.28,1.7,4.9,4.9,0,0,1-3,1,5,5,0,0,1-.58,0A6.91,6.91,0,0,0,3.74,12a6.9,6.9,0,0,0,6.95-6.95c0-.11,0-.21,0-.32A5,5,0,0,0,11.9,3.47Z"/></svg>